<mxfile host="65bd71144e">
    <diagram id="HIP3nbAZw_EuaXWnEj3U" name="Page-1">
        <mxGraphModel dx="631" dy="512" grid="1" gridSize="10" guides="1" tooltips="1" connect="1" arrows="1" fold="1" page="1" pageScale="1" pageWidth="850" pageHeight="1100" math="0" shadow="0">
            <root>
                <mxCell id="0"/>
                <mxCell id="1" parent="0"/>
                <mxCell id="7" value="http://icd2o.mths.ca" style="swimlane;whiteSpace=wrap;html=1;" parent="1" vertex="1">
                    <mxGeometry x="60" y="50" width="690" height="480" as="geometry"/>
                </mxCell>
                <mxCell id="9" value="Volume of a sphere, with a Query sting" style="text;html=1;align=center;verticalAlign=middle;resizable=0;points=[];autosize=1;strokeColor=none;fillColor=none;fontSize=20;" parent="7" vertex="1">
                    <mxGeometry x="195" y="30" width="370" height="40" as="geometry"/>
                </mxCell>
                <mxCell id="11" value="&lt;font style=&quot;font-size: 15px;&quot;&gt;The dimensions are:&amp;nbsp;&lt;/font&gt;" style="text;html=1;align=center;verticalAlign=middle;resizable=0;points=[];autosize=1;strokeColor=none;fillColor=none;fontSize=20;" parent="7" vertex="1">
                    <mxGeometry x="25" y="135" width="160" height="40" as="geometry"/>
                </mxCell>
                <mxCell id="13" value="The volume is:" style="text;html=1;align=center;verticalAlign=middle;resizable=0;points=[];autosize=1;strokeColor=none;fillColor=none;fontSize=15;" parent="7" vertex="1">
                    <mxGeometry x="40" y="181.29" width="120" height="30" as="geometry"/>
                </mxCell>
                <mxCell id="15" value="&lt;div&gt;V=4/&lt;span style=&quot;background-color: initial;&quot;&gt;3Ï€r3&lt;/span&gt;&lt;/div&gt;" style="text;html=1;align=center;verticalAlign=middle;resizable=0;points=[];autosize=1;strokeColor=none;fillColor=none;fontSize=15;" parent="7" vertex="1">
                    <mxGeometry x="40" y="95" width="90" height="30" as="geometry"/>
                </mxCell>
                <mxCell id="18" value="" style="shape=image;verticalLabelPosition=bottom;labelBackgroundColor=default;verticalAlign=top;aspect=fixed;imageAspect=0;image=data:image/jpeg,/9j/4AAQSkZJRgABAQAAAQABAAD/2wCEAAkGBxIQEA8TEhAREhUTFhAVEBIVFRASFRgVFRIYFxUVFhUYHSggGBsnGxUVITEhJSktLjowFx8/ODMtOCgtLisBCgoKDg0OGhAQGi4lICUrLzErLS4rNy0rLS0tKy0tLSsrLSstMi0tLS0wLS0tLS0tLS0tLS0tLS0tLSsrLS0tLf/AABEIAJ8BPgMBEQACEQEDEQH/xAAbAAEAAwEBAQEAAAAAAAAAAAAAAwQFAgEGB//EAEAQAAEDAgIGBAwEBgIDAAAAAAEAAgMEERIhBRMiMUFRBmFxkRUyUlWBkqGkscHS0xQjM0JidLTR4fBysiSCov/EABkBAQEBAQEBAAAAAAAAAAAAAAABAgMEBf/EAC8RAQEAAgEBBgQGAgMBAAAAAAABAhEDMRITIVFhoSIjUtEEQXGBscEykXLh8RT/2gAMAwEAAhEDEQA/AP3FAQEBAQEBAQEBAQYorqmWSdsLIMMLxGTI+QOLtWx5IDWkAbYG/gVjdt8HGZ5ZZWYyeF17b/tJeu8mk9ef6U+Jfmeheu8mk9ef6U+I+Z6F67yaT15/pT4j5noXrvJpPXn+lPiPmeheu8mk9ef6U+I+Z6F67yaT15/pT4j5noXrvJpPXn+lPiPmeheu8mk9ef6U+I+Z6F67yaT15/pT4j5noXrvJpPXn+lPiPmeheu8mk9ef6U+I+Z6F67yaT15/pT4j5noXrvJpPXn+lPiPmeheu8mk9ef6U+I+Z6F67yaT15/pT4j5noXrvJpPXn+lPiPmeiXQ9c+XXNka1r4ZDG/AS5pOrZIC0kA+LI3fxBVxy3tePO5bl/K/wDbRWnQQEBAQEBAQEBAQEBAQEBAQEBAQEBBj6A/U0j/ADR/pYFnHrf1cOH/ACz/AOX9Q6T6TkpYRMxrXMY+P8QCHEiEus9zLHxhcHjkCs8mVwm/9tc2dwx7U/f9FWp6SiOepvh/D00cWteA5z3TSuGrjZbI7JHDe8blm8urfKMXn1lfKT3v5K2lulmGmq3RxvingbE4xTsscMkgaHWa6zgc9xyIzWcub4brrPNM+fWFsmrNdWnVdIY4zWgtkJo42Sy2DNpr2ucAzazNmHfbgul5ZN+jpeWTtekVtI9LIoH4DDUvIhZUOMbGuDYnFwLnHFlbCb+y6zlzTG61em2c+fHG61em/wBnVH0tgkc4Fs0bRE6dkkkZYx8LbYpGHeQLg5gHPck5sb/P7GP4jG+nhv8AZPonpDHUP1YZNE4s1sYlaG447gY22JyzGRscxkrhyzK6XDmmd1qz9XmlOkUcEhj1c8rwzWSNhYH4I7kY3EkcjkLnLcmfLMbpc+aY3Wrf0Z7+kr5aylhpxeKSITulMb34mFzQMO0MAs7NxBsbCyz3tuck6a2599byTHHpZvol6U6fkpZIGN1MbZA8uqJ9ZqmltrM2P3G53kDLinLyXGyT/dXm5bhZJr9b0SSdJBEKVr43Ty1DJHs/C4ZYzgw4sLnEZWcCCcsj1Xve61L42+S3m1qXxt8vFTq+l23QuhZJJHOapskYjJnD4WjYDSRhIde98rDfxWbz/wCNk67/AFYv4jxxsnXf6+C8OlUJhhka2Zxme+OOEMAlL2XxtLSQG4cJuSbda332PZl82+/x7Mvj4/7czdLYWxQyCOd+tkfCI2MBkErA7ExzCRY3aRx3jhmp32OpS/iMdS6vj4fu6rOlcMT3tcya0erFRIGAxxGQAtEhve9nC+EG187JebGXX+zL8RjLq/v6N5dndj6C/W0j/Mj+kp1zw65fr/UceL/LP9f6jYXR2EBAQEBAQEBAQEBAQEBAQEBAQEBAQY+gP1NI/wA0f6WBZx639XDh/wAs/wDl/UadXTtljfG8Xa9rmvHNrhYjuKtks1XbKTKarCpOiEMdG6kL5HB7sbpbgSYwWljwQMi3AwD/AIrlODGYdhwx/DYzjuH/AK4n6ItkjqRLUTSyTtiY6Z2qDgyN+NrWta0NAve+XFO5ll3epfw8su7bv83emeijah87xUTw6+Nsc7WavC8MDsBOJpItiO4i49N2fD2rfHr1OTgmdt3ZueKxL0eY50rtY68lKKU5NyaMW0P4ts9S1eObv6abvDLbfOacu6Mxu1Ie5zmx0z6UtNhiY8NBJIzBszhzU7qeG/LSdzLrflpz0f6MR0bi5ry/ZDG3jpmEN63xxtc4nK5J4Jx8Uw6HFwTj6O9KdHhNK6VlRNTvfHqpTFq9tlyQCHtNnC5s4WOaZ8Xau5dGfD2ruXSSh0BHDNDIwuAipzTMZvGDG11yd5OyO9XHjmNln5TS48Uxss/KaS6V0Y+YtLKqaCwIIYIXNcD5TZGOzy3q5YW9Lpc8Ll0umFL0TdHJo9tPLJFHTsqwZQYy/FK5js2uaWuBOO4tblbJcu51cZjem3D/AOey4zG6k37tKi6MRwupXNkkJpzUuu7CTI+cWe55tvvnlZbnFJZfLfu648ExuNn5b91eo6Gwviawvddk000by2J9nSuJc0se0tc3PcRwCl4JZr1Zv4fGzXrb/tZg6NsY2kAef/HkdKCGQsxuc1zTiaxoaMncBwC1OKTXo1OGST0V63ofDJUOnxEF5Y6VhjppGuLQBkZI3OZcAA4SLrN4cbl2mcvw+Nz7X2fRgLs9DI0F+rpH+ZH9JTrGHXL9f6jjxf5Z/r/UbC27CAgICAgICAgICAgICAgICAgICAgIMibQhMkj46mog1hDpGx6gtLg0NxfmRuINmtGRtksXHx8K43i8bZlZv8AT+488DS+cKz3L7Kdm+d9jusvrvt9jwNL5wrPcvsp2b532O6y+u+32PA0vnCs9y+ynZvnfY7rL677fY8DS+cKz3L7Kdm+d9jusvrvt9jwNL5wrPcvsp2b532O6y+u+32PA0vnCs9y+ynZvnfY7rL677fY8DS+cKz3L7Kdm+d9jusvrvt9jwNL5wrPcvsp2b532O6y+u+32PA0vnCs9y+ynZvnfY7rL677fY8DS+cKz3L7Kdm+d9jusvrvt9jwNL5wrPcvsp2b532O6y+u+32PA0vnCs9y+ynZvnfY7rL677fY8DS+cKz3L7Kdm+d9jusvrvt9jwNL5wrPcvsp2b532O6y+u+32PA0vnCs9y+ynZvnfY7rL677fY8DS+cKz3L7Kdm+d9jusvrvt9lvRmjxA14D3yOe4vkkeWlznYWtucIAGy1oyA3LUx03hhMV1VsQEBAQEBAQEBAQEBAQEBAQEBAQEBBy+QN3kDtICbNqz9JRD99+wErPajPbiB+m4QbFxHDNrrd+5O3E7cTs0lEf327QR8U7UXtRZZIHZgg9hutbadICAgICAgICAgICAgICAgICAgICAgICAgICAgICAgICAgiqKhsYu425DiewKW6S2RkVGlHuybsjvP8Ahc7nvo5XO3oouBJuSSeZzWGXL28M877uXH/etB3qha1st1upBFC0jE0m5GY54Tuv3EehXQlbduYJB5gkKC9TaVc3J+0Oe4/5W5nfzbmd/NrQTteLtN/94rpLt0l2lVUQEBAQEBAQEBAQEBAQEBAQEBAQEBAQEBAQEBAQEFSvrREObjuHzPUs5ZaZyy0wpHl5u43K5W7cbdvWsUEgYqDWG59Fvn/vUiu8CCCZlnMdbeSw9jsx7QB6VRIWKIjcxQRmpMIMlyA0XORNxysN/Ym9eKdrs+L6DR9aJWg2wmwxNO8Ltjlt3xy7UW1poQEBAQEBAQEBAQEBAQEBAQEBAQEBAQEBAQEBBDV1AjaXH0DmeAUt1Et1Hzr3l5LjmSuNu3C+LtrUErWqqkaxFeQsyBHG57zf5q6VLgTQgrGHA4jeBcf+pv8AJND5/pTpSohnooqcRk1BlacYJFxgwm4zAGIk25LhzZ5Y5YzH83l5+TPHLHHD82tEHRwgzPaXNaTK8DC3LMm3ALpJZPF2m5jvJAyIyOEjhYNuYRtDJzQMTwf3eMLcAeaMybu7+yxFIWODm7x7eoqy6rcuq+jppw9ocOPsPELtLuO8u4lVUQEBAQEBAQEBAQEBAQEBAQEBAQEBAQEBAQEGDpWfG/CNzcvTx/suOd3XHO7quwKMpmNVVM1qqu3CwJAubGwVkakSNZkFTTrAhpy+O4I55IaYlTohk7qKdz3NNMHOA2bHE1t8RO62Fcs+OXKZeTlycUyymV/JOxuuLX7oxZ0VnH8wOZ4zxy2jYHtPC2tbNdq7/L8vVO8I0geFlFvQ8+F+E7nbu3/fkt4XXg1hdXTcXV2EBAQEBAQeFw5oPUBAQEBAQEBAQEBAQEBAQEBAQRVMuBjncgT6eClukt1HzTVwcE7AqqwwKqkBAtcgX3ZhakakdPcLEYrc9/O3BVUweLX2vVd8LKq6vnax7nW77WQcl4sTnl/C7+yDHppNeBnhiDjgILcMwOIWIt4mbe0g8BnnW6534r6fy0CRmARlvFwlXSJ4WUQPCjKAmxBG8Zj0KD6eGTE1ruYB7wu8d47VUQEBAQV9IVrIIpJZDZkbS5535DkOJ6lnLKYzdZzymONyr8yoOk8DqhtdVOa97pBDS04c0mmiNwZX34nievrAHhx58e13mV9JPKeb5uH4jC5d7nfSTynm/UKaobKxr2ODmvAcxw3EEXBC98ss3H05ZZuJVVEHMr8LXEAusCQ0WubDcLkC/aUKztCaZFVrbQyxap5jdrNUbuA2g0xvcDbcc9+XArnhydvfh0c+Pk7e9To010dBAQEBAQEBAQEBAQEFDTLrRW5lo+fyWM+jGfRhsdfxc/YO9cnJZY03GfoFviqqaOEdt99yT8VppajYBuFlqNR2/cLi+bf+wsqqw1qqurIM6UmZxa0lsbS0vfslsuTsUTTyBw4j2jmp1c78V1On8u6Rga1wG4OkAAyA2ibW6ro10JGA3yUKrSQi1hl2Ej4LLCCRpvvy5W+azUVnu55cN9/aojf0Q+8Teq49q7YdHbC+C6tNCAg+d0zpGsjmc2H8Dgs22umex97Z3aBuXHPLOXw1/tw5M+SX4dfvWnoWeWSFrptTjJdfUuL48nG1nHfla66YW2eLpx23HeXshrdKQbccjJXjc5v4aplYfSIy1wUyzx6X+GcuTHpf4v2YGl6CgqNT+VNFqpGyfl0NQ3Fh/Y/8nNp5Ljnjx5a3/H/TjyYcWevDpfK/ZuwaZgAaxjJ2jJrWilq2tA3Afp2AXWZ49P6rtOTHpP4v2fO9PK2uh/ESxzOgghiiLC1sTtZK+UMLXF1yLA3yFlx58uTHdl1JHn/E5cmO8pdST3c9H3VjtISQy10j2wxwSuaY4Rj1jQSw2FwBfeFOPt95cbl00cXed7cbl0kedCJ62tEssla4MjkniawRx4icGTy4i2ziaQLEZZpwXPPdt8N0/DXk5N25eEtj6XQmhBTPnkMhe+YsLzgjjbsAgWYwAXzNzvOXJd8OPs216OPi7Ft31a66OogICAgICAgICAgICDJ6RutG08ntuerO57rrGfRjk6M6NcnJYYtKsMWo0nYtNRIb5W5t7r5+xFWGqqjq4nODQ1+DaaXZAktBuWi+6+6/InjmFTKWx5FA2NjWMaGtaAGtAsABuACmtEkk1FeD9+X73/FB69RFZ6zWages1lWltY3tbjfciNXo68uhueLnW7Mreyy6YdHXDo1FtsQEGXX9HaSd5kmpopHkAFzmgmw3Bc8uPDK7scsuHjyu8ot0FDHTsEcTGxsFyGtFgLm5y7St44zGajeOMxmosWVafAaf0zpKmmihbNRPkneRDEGSYgy5s55JAAy39RtuK8fJycmOUxlni8HLy82GUxlm70feQB2FuIgusMRG69s7dV164903rxU9N6IjrIXQy4sDi0uwnCThNxn2gLOeEzmqxycc5Mezl0INERsqJagYtZK1jH57NmeLYcNyTCTLtLOPGZXKda50HoWKjY9kWKz3ukdiOI4nAA+jZCYccwmonHxY8c1i0lt0EBAQEBAQEBAQEBAQEFDTTbx35OB+XzWM+jGfRgMiLbYDhHkkXb6OI+HUubksMmI8Zju1u2O4Z+xVYsR1TMtsC+4O2T3GxVjS6wrTUdyWsL829+IWVVYaVVdYkHDiiKsBydx25P8AsR8lB5I62/JRFOSqZe2IE8htHuClZqs+ZxvhYeou2R8z7FmsoHxXsXG9uAybfnbj6VlH0Oh22iHWXH22+S7YdHbDourTQgICAg8KD856T0tXWtkjfoePWnYjqtdEQ1gfcEHxuJyvxOXBeLlmfJ4djx83z+bHk5Ny8fj57feaKp3RQQxvfjcyONr3+U5rQC70kL14yzGSvbhLjjJVtabEBAQEBAQEBAQEBAQEBAQEENZFjY5vMZdvD2qWbiWbj5thXBwWGFVYnab781pXraaO98Db8SAAe8LUajp9O3CbYuBsHyc+1VU4hGW3Jl/EfmivdTv25PW/wg5MAy25PXcPggq00DS2+2bmQ5veRm88L2QemmjH7G+kA/FZrNeOKjKB5WUQOzUR9NTx4WNbyAC7zo7zwiRVRAQEBAQeWQeoCAgICAgICAgICAgICAgICAgIPntJQYJDydmPmFxymq45TVRMcssp2OWliZrlVdvNwRe2Rz9C1Gola+4CK9xIOXPsgr0xOrZffhbfttmpam3rnKIge5RlC9yyifRUGOS/Bufp4f39C1jN1rCbrfXZ2EBAQEBAQEBAQEBAQEBAQEBAQEBAQEBAQEBBWr6XWMtxGbT1rOU3GcpuPn8wSDkRkQuLila5VUrXKqkDldhC/ZFsrXFuw2+Su12kxqbNoK1/5bxe1xhB63bI9pCuzbsuURG5yiIXOURGAXEAC5O4KdR9FRUwjYBx3k8yu2M1HfGaidaUQEBAQEBAQEBAQEBAQEBAQEBAQEBAQEBAQEBBQ0jQY9puTh7VjLHbGWO2LmCQRYjeFycnbXIJA9VRr8zn1juVHeNNiCd93MbbiXHsbu/+i3uTYkL1BG56iOAC4gAXJ3BBt6OodWLnNx9nUF2xx07Y46XlpoQEBAQEBAQEBAQEBAQEBAQEBAQEBAQEBAQEBAQEFaromyb8jwcN/wDlZuMrNxlY1RQyR8MQ5jPvHBc7jY5XGxAHrKPHvttcvgd6DvWKiCF9yX3ydbD/AMRu7ySe5BIXqCzT0D38MI5n5BamNrUxtbNJRtjGQz4k710mMjpMZFhaaEBAQEBAQEBAQEBAQEBAQEBAQEBAQEBAQEBAQEBAQEBBBNRxv3tHbuPeFLJUuMqq7Q7ODnD0g/JZ7EZ7uIXaBYd73EcRw7tyndp3aZmiGDeXH0gfAK9iL3cWoaRjPFaB17z3lakkakkTqqICAgICAgICAgICAgICAgICAgICAgICAgICAgICAgICAgICAgICAgICAgICAgICAgICAgICAgICAgICAgICAg//2Q==;" vertex="1" parent="7">
                    <mxGeometry x="330" y="95" width="318" height="159" as="geometry"/>
                </mxCell>
                <mxCell id="17" value="Formula:" style="text;html=1;align=center;verticalAlign=middle;resizable=0;points=[];autosize=1;strokeColor=none;fillColor=none;fontSize=15;" parent="1" vertex="1">
                    <mxGeometry x="100" y="110" width="80" height="30" as="geometry"/>
                </mxCell>
            </root>
        </mxGraphModel>
    </diagram>
</mxfile>